<svg xmlns="http://www.w3.org/2000/svg" version="1.1" xmlns:xlink="http://www.w3.org/1999/xlink" xmlns:svgjs="http://svgjs.dev/svgjs" viewBox="0 0 800 800" width="800" height="800"><g stroke-width="1.75" stroke="hsla(258, 90%, 66%, 1.00)" fill="none"><circle r="2.0789473684210527" cx="0" cy="0" fill="hsla(258, 90%, 66%, 1.00)" stroke="none"></circle><circle r="2.0789473684210527" cx="57.142857142857146" cy="0" fill="hsla(258, 90%, 66%, 1.00)" stroke="none"></circle><circle r="2.0789473684210527" cx="114.28571428571429" cy="0" fill="hsla(258, 90%, 66%, 1.00)" stroke="none"></circle><circle r="2.0789473684210527" cx="171.42857142857144" cy="0" fill="hsla(258, 90%, 66%, 1.00)" stroke="none"></circle><circle r="2.0789473684210527" cx="228.57142857142858" cy="0" fill="hsla(258, 90%, 66%, 1.00)" stroke="none"></circle><circle r="2.0789473684210527" cx="285.7142857142857" cy="0" fill="hsla(258, 90%, 66%, 1.00)" stroke="none"></circle><circle r="2.0789473684210527" cx="342.8571428571429" cy="0" fill="hsla(258, 90%, 66%, 1.00)" stroke="none"></circle><circle r="2.0789473684210527" cx="400.00000000000006" cy="0" fill="hsla(258, 90%, 66%, 1.00)" stroke="none"></circle><circle r="2.0789473684210527" cx="457.1428571428572" cy="0" fill="hsla(258, 90%, 66%, 1.00)" stroke="none"></circle><circle r="2.0789473684210527" cx="514.2857142857143" cy="0" fill="hsla(258, 90%, 66%, 1.00)" stroke="none"></circle><circle r="2.0789473684210527" cx="571.4285714285714" cy="0" fill="hsla(258, 90%, 66%, 1.00)" stroke="none"></circle><circle r="2.0789473684210527" cx="628.5714285714286" cy="0" fill="hsla(258, 90%, 66%, 1.00)" stroke="none"></circle><circle r="2.0789473684210527" cx="685.7142857142857" cy="0" fill="hsla(258, 90%, 66%, 1.00)" stroke="none"></circle><circle r="2.0789473684210527" cx="742.8571428571428" cy="0" fill="hsla(258, 90%, 66%, 1.00)" stroke="none"></circle><circle r="2.0789473684210527" cx="799.9999999999999" cy="0" fill="hsla(258, 90%, 66%, 1.00)" stroke="none"></circle><circle r="2.0789473684210527" cx="0" cy="57.142857142857146" fill="hsla(258, 90%, 66%, 1.00)" stroke="none"></circle><circle r="2.0789473684210527" cx="57.142857142857146" cy="57.142857142857146" fill="hsla(258, 90%, 66%, 1.00)" stroke="none"></circle><circle r="2.0789473684210527" cx="114.28571428571429" cy="57.142857142857146" fill="hsla(258, 90%, 66%, 1.00)" stroke="none"></circle><circle r="2.0789473684210527" cx="171.42857142857144" cy="57.142857142857146" fill="hsla(258, 90%, 66%, 1.00)" stroke="none"></circle><circle r="2.0789473684210527" cx="228.57142857142858" cy="57.142857142857146" fill="hsla(258, 90%, 66%, 1.00)" stroke="none"></circle><circle r="2.0789473684210527" cx="285.7142857142857" cy="57.142857142857146" fill="hsla(258, 90%, 66%, 1.00)" stroke="none"></circle><circle r="2.0789473684210527" cx="342.8571428571429" cy="57.142857142857146" fill="hsla(258, 90%, 66%, 1.00)" stroke="none"></circle><circle r="2.0789473684210527" cx="400.00000000000006" cy="57.142857142857146" fill="hsla(258, 90%, 66%, 1.00)" stroke="none"></circle><circle r="2.0789473684210527" cx="457.1428571428572" cy="57.142857142857146" fill="hsla(258, 90%, 66%, 1.00)" stroke="none"></circle><circle r="2.0789473684210527" cx="514.2857142857143" cy="57.142857142857146" fill="hsla(258, 90%, 66%, 1.00)" stroke="none"></circle><circle r="2.0789473684210527" cx="571.4285714285714" cy="57.142857142857146" fill="hsla(258, 90%, 66%, 1.00)" stroke="none"></circle><circle r="2.0789473684210527" cx="628.5714285714286" cy="57.142857142857146" fill="hsla(258, 90%, 66%, 1.00)" stroke="none"></circle><circle r="2.0789473684210527" cx="685.7142857142857" cy="57.142857142857146" fill="hsla(258, 90%, 66%, 1.00)" stroke="none"></circle><circle r="2.0789473684210527" cx="742.8571428571428" cy="57.142857142857146" fill="hsla(258, 90%, 66%, 1.00)" stroke="none"></circle><circle r="2.0789473684210527" cx="799.9999999999999" cy="57.142857142857146" fill="hsla(258, 90%, 66%, 1.00)" stroke="none"></circle><circle r="2.0789473684210527" cx="0" cy="114.28571428571429" fill="hsla(258, 90%, 66%, 1.00)" stroke="none"></circle><circle r="2.0789473684210527" cx="57.142857142857146" cy="114.28571428571429" fill="hsla(258, 90%, 66%, 1.00)" stroke="none"></circle><circle r="2.0789473684210527" cx="114.28571428571429" cy="114.28571428571429" fill="hsla(258, 90%, 66%, 1.00)" stroke="none"></circle><circle r="2.0789473684210527" cx="171.42857142857144" cy="114.28571428571429" fill="hsla(258, 90%, 66%, 1.00)" stroke="none"></circle><circle r="2.0789473684210527" cx="228.57142857142858" cy="114.28571428571429" fill="hsla(258, 90%, 66%, 1.00)" stroke="none"></circle><circle r="2.0789473684210527" cx="285.7142857142857" cy="114.28571428571429" fill="hsla(258, 90%, 66%, 1.00)" stroke="none"></circle><circle r="2.0789473684210527" cx="342.8571428571429" cy="114.28571428571429" fill="hsla(258, 90%, 66%, 1.00)" stroke="none"></circle><circle r="2.0789473684210527" cx="400.00000000000006" cy="114.28571428571429" fill="hsla(258, 90%, 66%, 1.00)" stroke="none"></circle><circle r="2.0789473684210527" cx="457.1428571428572" cy="114.28571428571429" fill="hsla(258, 90%, 66%, 1.00)" stroke="none"></circle><circle r="2.0789473684210527" cx="514.2857142857143" cy="114.28571428571429" fill="hsla(258, 90%, 66%, 1.00)" stroke="none"></circle><circle r="2.0789473684210527" cx="571.4285714285714" cy="114.28571428571429" fill="hsla(258, 90%, 66%, 1.00)" stroke="none"></circle><circle r="2.0789473684210527" cx="628.5714285714286" cy="114.28571428571429" fill="hsla(258, 90%, 66%, 1.00)" stroke="none"></circle><circle r="2.0789473684210527" cx="685.7142857142857" cy="114.28571428571429" fill="hsla(258, 90%, 66%, 1.00)" stroke="none"></circle><circle r="2.0789473684210527" cx="742.8571428571428" cy="114.28571428571429" fill="hsla(258, 90%, 66%, 1.00)" stroke="none"></circle><circle r="2.0789473684210527" cx="799.9999999999999" cy="114.28571428571429" fill="hsla(258, 90%, 66%, 1.00)" stroke="none"></circle><circle r="2.0789473684210527" cx="0" cy="171.42857142857144" fill="hsla(258, 90%, 66%, 1.00)" stroke="none"></circle><circle r="2.0789473684210527" cx="57.142857142857146" cy="171.42857142857144" fill="hsla(258, 90%, 66%, 1.00)" stroke="none"></circle><circle r="2.0789473684210527" cx="114.28571428571429" cy="171.42857142857144" fill="hsla(258, 90%, 66%, 1.00)" stroke="none"></circle><circle r="2.0789473684210527" cx="171.42857142857144" cy="171.42857142857144" fill="hsla(258, 90%, 66%, 1.00)" stroke="none"></circle><circle r="2.0789473684210527" cx="228.57142857142858" cy="171.42857142857144" fill="hsla(258, 90%, 66%, 1.00)" stroke="none"></circle><circle r="2.0789473684210527" cx="285.7142857142857" cy="171.42857142857144" fill="hsla(258, 90%, 66%, 1.00)" stroke="none"></circle><circle r="2.0789473684210527" cx="342.8571428571429" cy="171.42857142857144" fill="hsla(258, 90%, 66%, 1.00)" stroke="none"></circle><circle r="2.0789473684210527" cx="400.00000000000006" cy="171.42857142857144" fill="hsla(258, 90%, 66%, 1.00)" stroke="none"></circle><circle r="2.0789473684210527" cx="457.1428571428572" cy="171.42857142857144" fill="hsla(258, 90%, 66%, 1.00)" stroke="none"></circle><circle r="2.0789473684210527" cx="514.2857142857143" cy="171.42857142857144" fill="hsla(258, 90%, 66%, 1.00)" stroke="none"></circle><circle r="2.0789473684210527" cx="571.4285714285714" cy="171.42857142857144" fill="hsla(258, 90%, 66%, 1.00)" stroke="none"></circle><circle r="2.0789473684210527" cx="628.5714285714286" cy="171.42857142857144" fill="hsla(258, 90%, 66%, 1.00)" stroke="none"></circle><circle r="2.0789473684210527" cx="685.7142857142857" cy="171.42857142857144" fill="hsla(258, 90%, 66%, 1.00)" stroke="none"></circle><circle r="2.0789473684210527" cx="742.8571428571428" cy="171.42857142857144" fill="hsla(258, 90%, 66%, 1.00)" stroke="none"></circle><circle r="2.0789473684210527" cx="799.9999999999999" cy="171.42857142857144" fill="hsla(258, 90%, 66%, 1.00)" stroke="none"></circle><circle r="2.0789473684210527" cx="0" cy="228.57142857142858" fill="hsla(258, 90%, 66%, 1.00)" stroke="none"></circle><circle r="2.0789473684210527" cx="57.142857142857146" cy="228.57142857142858" fill="hsla(258, 90%, 66%, 1.00)" stroke="none"></circle><circle r="2.0789473684210527" cx="114.28571428571429" cy="228.57142857142858" fill="hsla(258, 90%, 66%, 1.00)" stroke="none"></circle><circle r="2.0789473684210527" cx="171.42857142857144" cy="228.57142857142858" fill="hsla(258, 90%, 66%, 1.00)" stroke="none"></circle><circle r="2.0789473684210527" cx="228.57142857142858" cy="228.57142857142858" fill="hsla(258, 90%, 66%, 1.00)" stroke="none"></circle><circle r="2.0789473684210527" cx="285.7142857142857" cy="228.57142857142858" fill="hsla(258, 90%, 66%, 1.00)" stroke="none"></circle><circle r="2.0789473684210527" cx="342.8571428571429" cy="228.57142857142858" fill="hsla(258, 90%, 66%, 1.00)" stroke="none"></circle><circle r="2.0789473684210527" cx="400.00000000000006" cy="228.57142857142858" fill="hsla(258, 90%, 66%, 1.00)" stroke="none"></circle><circle r="2.0789473684210527" cx="457.1428571428572" cy="228.57142857142858" fill="hsla(258, 90%, 66%, 1.00)" stroke="none"></circle><circle r="2.0789473684210527" cx="514.2857142857143" cy="228.57142857142858" fill="hsla(258, 90%, 66%, 1.00)" stroke="none"></circle><circle r="2.0789473684210527" cx="571.4285714285714" cy="228.57142857142858" fill="hsla(258, 90%, 66%, 1.00)" stroke="none"></circle><circle r="2.0789473684210527" cx="628.5714285714286" cy="228.57142857142858" fill="hsla(258, 90%, 66%, 1.00)" stroke="none"></circle><circle r="2.0789473684210527" cx="685.7142857142857" cy="228.57142857142858" fill="hsla(258, 90%, 66%, 1.00)" stroke="none"></circle><circle r="2.0789473684210527" cx="742.8571428571428" cy="228.57142857142858" fill="hsla(258, 90%, 66%, 1.00)" stroke="none"></circle><circle r="2.0789473684210527" cx="799.9999999999999" cy="228.57142857142858" fill="hsla(258, 90%, 66%, 1.00)" stroke="none"></circle><circle r="2.0789473684210527" cx="0" cy="285.7142857142857" fill="hsla(258, 90%, 66%, 1.00)" stroke="none"></circle><circle r="2.0789473684210527" cx="57.142857142857146" cy="285.7142857142857" fill="hsla(258, 90%, 66%, 1.00)" stroke="none"></circle><circle r="2.0789473684210527" cx="114.28571428571429" cy="285.7142857142857" fill="hsla(258, 90%, 66%, 1.00)" stroke="none"></circle><circle r="2.0789473684210527" cx="171.42857142857144" cy="285.7142857142857" fill="hsla(258, 90%, 66%, 1.00)" stroke="none"></circle><circle r="2.0789473684210527" cx="228.57142857142858" cy="285.7142857142857" fill="hsla(258, 90%, 66%, 1.00)" stroke="none"></circle><circle r="2.0789473684210527" cx="285.7142857142857" cy="285.7142857142857" fill="hsla(258, 90%, 66%, 1.00)" stroke="none"></circle><circle r="2.0789473684210527" cx="342.8571428571429" cy="285.7142857142857" fill="hsla(258, 90%, 66%, 1.00)" stroke="none"></circle><circle r="2.0789473684210527" cx="400.00000000000006" cy="285.7142857142857" fill="hsla(258, 90%, 66%, 1.00)" stroke="none"></circle><circle r="2.0789473684210527" cx="457.1428571428572" cy="285.7142857142857" fill="hsla(258, 90%, 66%, 1.00)" stroke="none"></circle><circle r="2.0789473684210527" cx="514.2857142857143" cy="285.7142857142857" fill="hsla(258, 90%, 66%, 1.00)" stroke="none"></circle><circle r="2.0789473684210527" cx="571.4285714285714" cy="285.7142857142857" fill="hsla(258, 90%, 66%, 1.00)" stroke="none"></circle><circle r="2.0789473684210527" cx="628.5714285714286" cy="285.7142857142857" fill="hsla(258, 90%, 66%, 1.00)" stroke="none"></circle><circle r="2.0789473684210527" cx="685.7142857142857" cy="285.7142857142857" fill="hsla(258, 90%, 66%, 1.00)" stroke="none"></circle><circle r="2.0789473684210527" cx="742.8571428571428" cy="285.7142857142857" fill="hsla(258, 90%, 66%, 1.00)" stroke="none"></circle><circle r="2.0789473684210527" cx="799.9999999999999" cy="285.7142857142857" fill="hsla(258, 90%, 66%, 1.00)" stroke="none"></circle><circle r="2.0789473684210527" cx="0" cy="342.8571428571429" fill="hsla(258, 90%, 66%, 1.00)" stroke="none"></circle><circle r="2.0789473684210527" cx="57.142857142857146" cy="342.8571428571429" fill="hsla(258, 90%, 66%, 1.00)" stroke="none"></circle><circle r="2.0789473684210527" cx="114.28571428571429" cy="342.8571428571429" fill="hsla(258, 90%, 66%, 1.00)" stroke="none"></circle><circle r="2.0789473684210527" cx="171.42857142857144" cy="342.8571428571429" fill="hsla(258, 90%, 66%, 1.00)" stroke="none"></circle><circle r="2.0789473684210527" cx="228.57142857142858" cy="342.8571428571429" fill="hsla(258, 90%, 66%, 1.00)" stroke="none"></circle><circle r="2.0789473684210527" cx="285.7142857142857" cy="342.8571428571429" fill="hsla(258, 90%, 66%, 1.00)" stroke="none"></circle><circle r="2.0789473684210527" cx="342.8571428571429" cy="342.8571428571429" fill="hsla(258, 90%, 66%, 1.00)" stroke="none"></circle><circle r="2.0789473684210527" cx="400.00000000000006" cy="342.8571428571429" fill="hsla(258, 90%, 66%, 1.00)" stroke="none"></circle><circle r="2.0789473684210527" cx="457.1428571428572" cy="342.8571428571429" fill="hsla(258, 90%, 66%, 1.00)" stroke="none"></circle><circle r="2.0789473684210527" cx="514.2857142857143" cy="342.8571428571429" fill="hsla(258, 90%, 66%, 1.00)" stroke="none"></circle><circle r="2.0789473684210527" cx="571.4285714285714" cy="342.8571428571429" fill="hsla(258, 90%, 66%, 1.00)" stroke="none"></circle><circle r="2.0789473684210527" cx="628.5714285714286" cy="342.8571428571429" fill="hsla(258, 90%, 66%, 1.00)" stroke="none"></circle><circle r="2.0789473684210527" cx="685.7142857142857" cy="342.8571428571429" fill="hsla(258, 90%, 66%, 1.00)" stroke="none"></circle><circle r="2.0789473684210527" cx="742.8571428571428" cy="342.8571428571429" fill="hsla(258, 90%, 66%, 1.00)" stroke="none"></circle><circle r="2.0789473684210527" cx="799.9999999999999" cy="342.8571428571429" fill="hsla(258, 90%, 66%, 1.00)" stroke="none"></circle><circle r="2.0789473684210527" cx="0" cy="400.00000000000006" fill="hsla(258, 90%, 66%, 1.00)" stroke="none"></circle><circle r="2.0789473684210527" cx="57.142857142857146" cy="400.00000000000006" fill="hsla(258, 90%, 66%, 1.00)" stroke="none"></circle><circle r="2.0789473684210527" cx="114.28571428571429" cy="400.00000000000006" fill="hsla(258, 90%, 66%, 1.00)" stroke="none"></circle><circle r="2.0789473684210527" cx="171.42857142857144" cy="400.00000000000006" fill="hsla(258, 90%, 66%, 1.00)" stroke="none"></circle><circle r="2.0789473684210527" cx="228.57142857142858" cy="400.00000000000006" fill="hsla(258, 90%, 66%, 1.00)" stroke="none"></circle><circle r="2.0789473684210527" cx="285.7142857142857" cy="400.00000000000006" fill="hsla(258, 90%, 66%, 1.00)" stroke="none"></circle><circle r="2.0789473684210527" cx="342.8571428571429" cy="400.00000000000006" fill="hsla(258, 90%, 66%, 1.00)" stroke="none"></circle><circle r="2.0789473684210527" cx="400.00000000000006" cy="400.00000000000006" fill="hsla(258, 90%, 66%, 1.00)" stroke="none"></circle><circle r="2.0789473684210527" cx="457.1428571428572" cy="400.00000000000006" fill="hsla(258, 90%, 66%, 1.00)" stroke="none"></circle><circle r="2.0789473684210527" cx="514.2857142857143" cy="400.00000000000006" fill="hsla(258, 90%, 66%, 1.00)" stroke="none"></circle><circle r="2.0789473684210527" cx="571.4285714285714" cy="400.00000000000006" fill="hsla(258, 90%, 66%, 1.00)" stroke="none"></circle><circle r="2.0789473684210527" cx="628.5714285714286" cy="400.00000000000006" fill="hsla(258, 90%, 66%, 1.00)" stroke="none"></circle><circle r="2.0789473684210527" cx="685.7142857142857" cy="400.00000000000006" fill="hsla(258, 90%, 66%, 1.00)" stroke="none"></circle><circle r="2.0789473684210527" cx="742.8571428571428" cy="400.00000000000006" fill="hsla(258, 90%, 66%, 1.00)" stroke="none"></circle><circle r="2.0789473684210527" cx="799.9999999999999" cy="400.00000000000006" fill="hsla(258, 90%, 66%, 1.00)" stroke="none"></circle><circle r="2.0789473684210527" cx="0" cy="457.1428571428572" fill="hsla(258, 90%, 66%, 1.00)" stroke="none"></circle><circle r="2.0789473684210527" cx="57.142857142857146" cy="457.1428571428572" fill="hsla(258, 90%, 66%, 1.00)" stroke="none"></circle><circle r="2.0789473684210527" cx="114.28571428571429" cy="457.1428571428572" fill="hsla(258, 90%, 66%, 1.00)" stroke="none"></circle><circle r="2.0789473684210527" cx="171.42857142857144" cy="457.1428571428572" fill="hsla(258, 90%, 66%, 1.00)" stroke="none"></circle><circle r="2.0789473684210527" cx="228.57142857142858" cy="457.1428571428572" fill="hsla(258, 90%, 66%, 1.00)" stroke="none"></circle><circle r="2.0789473684210527" cx="285.7142857142857" cy="457.1428571428572" fill="hsla(258, 90%, 66%, 1.00)" stroke="none"></circle><circle r="2.0789473684210527" cx="342.8571428571429" cy="457.1428571428572" fill="hsla(258, 90%, 66%, 1.00)" stroke="none"></circle><circle r="2.0789473684210527" cx="400.00000000000006" cy="457.1428571428572" fill="hsla(258, 90%, 66%, 1.00)" stroke="none"></circle><circle r="2.0789473684210527" cx="457.1428571428572" cy="457.1428571428572" fill="hsla(258, 90%, 66%, 1.00)" stroke="none"></circle><circle r="2.0789473684210527" cx="514.2857142857143" cy="457.1428571428572" fill="hsla(258, 90%, 66%, 1.00)" stroke="none"></circle><circle r="2.0789473684210527" cx="571.4285714285714" cy="457.1428571428572" fill="hsla(258, 90%, 66%, 1.00)" stroke="none"></circle><circle r="2.0789473684210527" cx="628.5714285714286" cy="457.1428571428572" fill="hsla(258, 90%, 66%, 1.00)" stroke="none"></circle><circle r="2.0789473684210527" cx="685.7142857142857" cy="457.1428571428572" fill="hsla(258, 90%, 66%, 1.00)" stroke="none"></circle><circle r="2.0789473684210527" cx="742.8571428571428" cy="457.1428571428572" fill="hsla(258, 90%, 66%, 1.00)" stroke="none"></circle><circle r="2.0789473684210527" cx="799.9999999999999" cy="457.1428571428572" fill="hsla(258, 90%, 66%, 1.00)" stroke="none"></circle><circle r="2.0789473684210527" cx="0" cy="514.2857142857143" fill="hsla(258, 90%, 66%, 1.00)" stroke="none"></circle><circle r="2.0789473684210527" cx="57.142857142857146" cy="514.2857142857143" fill="hsla(258, 90%, 66%, 1.00)" stroke="none"></circle><circle r="2.0789473684210527" cx="114.28571428571429" cy="514.2857142857143" fill="hsla(258, 90%, 66%, 1.00)" stroke="none"></circle><circle r="2.0789473684210527" cx="171.42857142857144" cy="514.2857142857143" fill="hsla(258, 90%, 66%, 1.00)" stroke="none"></circle><circle r="2.0789473684210527" cx="228.57142857142858" cy="514.2857142857143" fill="hsla(258, 90%, 66%, 1.00)" stroke="none"></circle><circle r="2.0789473684210527" cx="285.7142857142857" cy="514.2857142857143" fill="hsla(258, 90%, 66%, 1.00)" stroke="none"></circle><circle r="2.0789473684210527" cx="342.8571428571429" cy="514.2857142857143" fill="hsla(258, 90%, 66%, 1.00)" stroke="none"></circle><circle r="2.0789473684210527" cx="400.00000000000006" cy="514.2857142857143" fill="hsla(258, 90%, 66%, 1.00)" stroke="none"></circle><circle r="2.0789473684210527" cx="457.1428571428572" cy="514.2857142857143" fill="hsla(258, 90%, 66%, 1.00)" stroke="none"></circle><circle r="2.0789473684210527" cx="514.2857142857143" cy="514.2857142857143" fill="hsla(258, 90%, 66%, 1.00)" stroke="none"></circle><circle r="2.0789473684210527" cx="571.4285714285714" cy="514.2857142857143" fill="hsla(258, 90%, 66%, 1.00)" stroke="none"></circle><circle r="2.0789473684210527" cx="628.5714285714286" cy="514.2857142857143" fill="hsla(258, 90%, 66%, 1.00)" stroke="none"></circle><circle r="2.0789473684210527" cx="685.7142857142857" cy="514.2857142857143" fill="hsla(258, 90%, 66%, 1.00)" stroke="none"></circle><circle r="2.0789473684210527" cx="742.8571428571428" cy="514.2857142857143" fill="hsla(258, 90%, 66%, 1.00)" stroke="none"></circle><circle r="2.0789473684210527" cx="799.9999999999999" cy="514.2857142857143" fill="hsla(258, 90%, 66%, 1.00)" stroke="none"></circle><circle r="2.0789473684210527" cx="0" cy="571.4285714285714" fill="hsla(258, 90%, 66%, 1.00)" stroke="none"></circle><circle r="2.0789473684210527" cx="57.142857142857146" cy="571.4285714285714" fill="hsla(258, 90%, 66%, 1.00)" stroke="none"></circle><circle r="2.0789473684210527" cx="114.28571428571429" cy="571.4285714285714" fill="hsla(258, 90%, 66%, 1.00)" stroke="none"></circle><circle r="2.0789473684210527" cx="171.42857142857144" cy="571.4285714285714" fill="hsla(258, 90%, 66%, 1.00)" stroke="none"></circle><circle r="2.0789473684210527" cx="228.57142857142858" cy="571.4285714285714" fill="hsla(258, 90%, 66%, 1.00)" stroke="none"></circle><circle r="2.0789473684210527" cx="285.7142857142857" cy="571.4285714285714" fill="hsla(258, 90%, 66%, 1.00)" stroke="none"></circle><circle r="2.0789473684210527" cx="342.8571428571429" cy="571.4285714285714" fill="hsla(258, 90%, 66%, 1.00)" stroke="none"></circle><circle r="2.0789473684210527" cx="400.00000000000006" cy="571.4285714285714" fill="hsla(258, 90%, 66%, 1.00)" stroke="none"></circle><circle r="2.0789473684210527" cx="457.1428571428572" cy="571.4285714285714" fill="hsla(258, 90%, 66%, 1.00)" stroke="none"></circle><circle r="2.0789473684210527" cx="514.2857142857143" cy="571.4285714285714" fill="hsla(258, 90%, 66%, 1.00)" stroke="none"></circle><circle r="2.0789473684210527" cx="571.4285714285714" cy="571.4285714285714" fill="hsla(258, 90%, 66%, 1.00)" stroke="none"></circle><circle r="2.0789473684210527" cx="628.5714285714286" cy="571.4285714285714" fill="hsla(258, 90%, 66%, 1.00)" stroke="none"></circle><circle r="2.0789473684210527" cx="685.7142857142857" cy="571.4285714285714" fill="hsla(258, 90%, 66%, 1.00)" stroke="none"></circle><circle r="2.0789473684210527" cx="742.8571428571428" cy="571.4285714285714" fill="hsla(258, 90%, 66%, 1.00)" stroke="none"></circle><circle r="2.0789473684210527" cx="799.9999999999999" cy="571.4285714285714" fill="hsla(258, 90%, 66%, 1.00)" stroke="none"></circle><circle r="2.0789473684210527" cx="0" cy="628.5714285714286" fill="hsla(258, 90%, 66%, 1.00)" stroke="none"></circle><circle r="2.0789473684210527" cx="57.142857142857146" cy="628.5714285714286" fill="hsla(258, 90%, 66%, 1.00)" stroke="none"></circle><circle r="2.0789473684210527" cx="114.28571428571429" cy="628.5714285714286" fill="hsla(258, 90%, 66%, 1.00)" stroke="none"></circle><circle r="2.0789473684210527" cx="171.42857142857144" cy="628.5714285714286" fill="hsla(258, 90%, 66%, 1.00)" stroke="none"></circle><circle r="2.0789473684210527" cx="228.57142857142858" cy="628.5714285714286" fill="hsla(258, 90%, 66%, 1.00)" stroke="none"></circle><circle r="2.0789473684210527" cx="285.7142857142857" cy="628.5714285714286" fill="hsla(258, 90%, 66%, 1.00)" stroke="none"></circle><circle r="2.0789473684210527" cx="342.8571428571429" cy="628.5714285714286" fill="hsla(258, 90%, 66%, 1.00)" stroke="none"></circle><circle r="2.0789473684210527" cx="400.00000000000006" cy="628.5714285714286" fill="hsla(258, 90%, 66%, 1.00)" stroke="none"></circle><circle r="2.0789473684210527" cx="457.1428571428572" cy="628.5714285714286" fill="hsla(258, 90%, 66%, 1.00)" stroke="none"></circle><circle r="2.0789473684210527" cx="514.2857142857143" cy="628.5714285714286" fill="hsla(258, 90%, 66%, 1.00)" stroke="none"></circle><circle r="2.0789473684210527" cx="571.4285714285714" cy="628.5714285714286" fill="hsla(258, 90%, 66%, 1.00)" stroke="none"></circle><circle r="2.0789473684210527" cx="628.5714285714286" cy="628.5714285714286" fill="hsla(258, 90%, 66%, 1.00)" stroke="none"></circle><circle r="2.0789473684210527" cx="685.7142857142857" cy="628.5714285714286" fill="hsla(258, 90%, 66%, 1.00)" stroke="none"></circle><circle r="2.0789473684210527" cx="742.8571428571428" cy="628.5714285714286" fill="hsla(258, 90%, 66%, 1.00)" stroke="none"></circle><circle r="2.0789473684210527" cx="799.9999999999999" cy="628.5714285714286" fill="hsla(258, 90%, 66%, 1.00)" stroke="none"></circle><circle r="2.0789473684210527" cx="0" cy="685.7142857142857" fill="hsla(258, 90%, 66%, 1.00)" stroke="none"></circle><circle r="2.0789473684210527" cx="57.142857142857146" cy="685.7142857142857" fill="hsla(258, 90%, 66%, 1.00)" stroke="none"></circle><circle r="2.0789473684210527" cx="114.28571428571429" cy="685.7142857142857" fill="hsla(258, 90%, 66%, 1.00)" stroke="none"></circle><circle r="2.0789473684210527" cx="171.42857142857144" cy="685.7142857142857" fill="hsla(258, 90%, 66%, 1.00)" stroke="none"></circle><circle r="2.0789473684210527" cx="228.57142857142858" cy="685.7142857142857" fill="hsla(258, 90%, 66%, 1.00)" stroke="none"></circle><circle r="2.0789473684210527" cx="285.7142857142857" cy="685.7142857142857" fill="hsla(258, 90%, 66%, 1.00)" stroke="none"></circle><circle r="2.0789473684210527" cx="342.8571428571429" cy="685.7142857142857" fill="hsla(258, 90%, 66%, 1.00)" stroke="none"></circle><circle r="2.0789473684210527" cx="400.00000000000006" cy="685.7142857142857" fill="hsla(258, 90%, 66%, 1.00)" stroke="none"></circle><circle r="2.0789473684210527" cx="457.1428571428572" cy="685.7142857142857" fill="hsla(258, 90%, 66%, 1.00)" stroke="none"></circle><circle r="2.0789473684210527" cx="514.2857142857143" cy="685.7142857142857" fill="hsla(258, 90%, 66%, 1.00)" stroke="none"></circle><circle r="2.0789473684210527" cx="571.4285714285714" cy="685.7142857142857" fill="hsla(258, 90%, 66%, 1.00)" stroke="none"></circle><circle r="2.0789473684210527" cx="628.5714285714286" cy="685.7142857142857" fill="hsla(258, 90%, 66%, 1.00)" stroke="none"></circle><circle r="2.0789473684210527" cx="685.7142857142857" cy="685.7142857142857" fill="hsla(258, 90%, 66%, 1.00)" stroke="none"></circle><circle r="2.0789473684210527" cx="742.8571428571428" cy="685.7142857142857" fill="hsla(258, 90%, 66%, 1.00)" stroke="none"></circle><circle r="2.0789473684210527" cx="799.9999999999999" cy="685.7142857142857" fill="hsla(258, 90%, 66%, 1.00)" stroke="none"></circle><circle r="2.0789473684210527" cx="0" cy="742.8571428571428" fill="hsla(258, 90%, 66%, 1.00)" stroke="none"></circle><circle r="2.0789473684210527" cx="57.142857142857146" cy="742.8571428571428" fill="hsla(258, 90%, 66%, 1.00)" stroke="none"></circle><circle r="2.0789473684210527" cx="114.28571428571429" cy="742.8571428571428" fill="hsla(258, 90%, 66%, 1.00)" stroke="none"></circle><circle r="2.0789473684210527" cx="171.42857142857144" cy="742.8571428571428" fill="hsla(258, 90%, 66%, 1.00)" stroke="none"></circle><circle r="2.0789473684210527" cx="228.57142857142858" cy="742.8571428571428" fill="hsla(258, 90%, 66%, 1.00)" stroke="none"></circle><circle r="2.0789473684210527" cx="285.7142857142857" cy="742.8571428571428" fill="hsla(258, 90%, 66%, 1.00)" stroke="none"></circle><circle r="2.0789473684210527" cx="342.8571428571429" cy="742.8571428571428" fill="hsla(258, 90%, 66%, 1.00)" stroke="none"></circle><circle r="2.0789473684210527" cx="400.00000000000006" cy="742.8571428571428" fill="hsla(258, 90%, 66%, 1.00)" stroke="none"></circle><circle r="2.0789473684210527" cx="457.1428571428572" cy="742.8571428571428" fill="hsla(258, 90%, 66%, 1.00)" stroke="none"></circle><circle r="2.0789473684210527" cx="514.2857142857143" cy="742.8571428571428" fill="hsla(258, 90%, 66%, 1.00)" stroke="none"></circle><circle r="2.0789473684210527" cx="571.4285714285714" cy="742.8571428571428" fill="hsla(258, 90%, 66%, 1.00)" stroke="none"></circle><circle r="2.0789473684210527" cx="628.5714285714286" cy="742.8571428571428" fill="hsla(258, 90%, 66%, 1.00)" stroke="none"></circle><circle r="2.0789473684210527" cx="685.7142857142857" cy="742.8571428571428" fill="hsla(258, 90%, 66%, 1.00)" stroke="none"></circle><circle r="2.0789473684210527" cx="742.8571428571428" cy="742.8571428571428" fill="hsla(258, 90%, 66%, 1.00)" stroke="none"></circle><circle r="2.0789473684210527" cx="799.9999999999999" cy="742.8571428571428" fill="hsla(258, 90%, 66%, 1.00)" stroke="none"></circle><circle r="2.0789473684210527" cx="0" cy="799.9999999999999" fill="hsla(258, 90%, 66%, 1.00)" stroke="none"></circle><circle r="2.0789473684210527" cx="57.142857142857146" cy="799.9999999999999" fill="hsla(258, 90%, 66%, 1.00)" stroke="none"></circle><circle r="2.0789473684210527" cx="114.28571428571429" cy="799.9999999999999" fill="hsla(258, 90%, 66%, 1.00)" stroke="none"></circle><circle r="2.0789473684210527" cx="171.42857142857144" cy="799.9999999999999" fill="hsla(258, 90%, 66%, 1.00)" stroke="none"></circle><circle r="2.0789473684210527" cx="228.57142857142858" cy="799.9999999999999" fill="hsla(258, 90%, 66%, 1.00)" stroke="none"></circle><circle r="2.0789473684210527" cx="285.7142857142857" cy="799.9999999999999" fill="hsla(258, 90%, 66%, 1.00)" stroke="none"></circle><circle r="2.0789473684210527" cx="342.8571428571429" cy="799.9999999999999" fill="hsla(258, 90%, 66%, 1.00)" stroke="none"></circle><circle r="2.0789473684210527" cx="400.00000000000006" cy="799.9999999999999" fill="hsla(258, 90%, 66%, 1.00)" stroke="none"></circle><circle r="2.0789473684210527" cx="457.1428571428572" cy="799.9999999999999" fill="hsla(258, 90%, 66%, 1.00)" stroke="none"></circle><circle r="2.0789473684210527" cx="514.2857142857143" cy="799.9999999999999" fill="hsla(258, 90%, 66%, 1.00)" stroke="none"></circle><circle r="2.0789473684210527" cx="571.4285714285714" cy="799.9999999999999" fill="hsla(258, 90%, 66%, 1.00)" stroke="none"></circle><circle r="2.0789473684210527" cx="628.5714285714286" cy="799.9999999999999" fill="hsla(258, 90%, 66%, 1.00)" stroke="none"></circle><circle r="2.0789473684210527" cx="685.7142857142857" cy="799.9999999999999" fill="hsla(258, 90%, 66%, 1.00)" stroke="none"></circle><circle r="2.0789473684210527" cx="742.8571428571428" cy="799.9999999999999" fill="hsla(258, 90%, 66%, 1.00)" stroke="none"></circle><circle r="2.0789473684210527" cx="799.9999999999999" cy="799.9999999999999" fill="hsla(258, 90%, 66%, 1.00)" stroke="none"></circle></g></svg>